<svg id="visual" viewBox="0 0 960 540" width="960" height="540" xmlns="http://www.w3.org/2000/svg" xmlns:xlink="http://www.w3.org/1999/xlink" version="1.1"><g stroke-width="1" stroke-linejoin="bevel"><path d="M472 274L486 289L493 269Z" fill="#2f3948" stroke="#2f3948"></path><path d="M486 289L497 273L493 269Z" fill="#777d88" stroke="#777d88"></path><path d="M472 274L479 319L486 289Z" fill="#ffffff" stroke="#ffffff"></path><path d="M486 289L542 317L497 273Z" fill="#2f3948" stroke="#2f3948"></path><path d="M530 241L476 223L493 269Z" fill="#c7c9ce" stroke="#c7c9ce"></path><path d="M493 269L476 223L472 274Z" fill="#e2e4e6" stroke="#e2e4e6"></path><path d="M538 242L530 241L497 273Z" fill="#001122" stroke="#001122"></path><path d="M497 273L530 241L493 269Z" fill="#777d88" stroke="#777d88"></path><path d="M542 317L538 242L497 273Z" fill="#91969f" stroke="#91969f"></path><path d="M530 241L533 231L476 223Z" fill="#777d88" stroke="#777d88"></path><path d="M534 232L533 231L530 241Z" fill="#2f3948" stroke="#2f3948"></path><path d="M538 242L534 232L530 241Z" fill="#e2e4e6" stroke="#e2e4e6"></path><path d="M479 319L542 317L486 289Z" fill="#777d88" stroke="#777d88"></path><path d="M380 271L450 354L472 274Z" fill="#777d88" stroke="#777d88"></path><path d="M472 274L450 354L479 319Z" fill="#182535" stroke="#182535"></path><path d="M551 370L559 345L542 317Z" fill="#464f5d" stroke="#464f5d"></path><path d="M476 223L404 247L472 274Z" fill="#e2e4e6" stroke="#e2e4e6"></path><path d="M542 317L573 271L538 242Z" fill="#e2e4e6" stroke="#e2e4e6"></path><path d="M538 242L549 195L534 232Z" fill="#abafb6" stroke="#abafb6"></path><path d="M366 308L436 364L450 354Z" fill="#e2e4e6" stroke="#e2e4e6"></path><path d="M551 370L542 317L479 319Z" fill="#ffffff" stroke="#ffffff"></path><path d="M551 370L479 319L504 396Z" fill="#c7c9ce" stroke="#c7c9ce"></path><path d="M542 317L570 333L573 271Z" fill="#182535" stroke="#182535"></path><path d="M559 345L570 333L542 317Z" fill="#c7c9ce" stroke="#c7c9ce"></path><path d="M559 345L563 344L570 333Z" fill="#e2e4e6" stroke="#e2e4e6"></path><path d="M404 247L380 271L472 274Z" fill="#c7c9ce" stroke="#c7c9ce"></path><path d="M591 191L549 195L538 242Z" fill="#c7c9ce" stroke="#c7c9ce"></path><path d="M534 232L549 195L533 231Z" fill="#abafb6" stroke="#abafb6"></path><path d="M533 231L486 171L476 223Z" fill="#91969f" stroke="#91969f"></path><path d="M476 223L407 182L404 247Z" fill="#abafb6" stroke="#abafb6"></path><path d="M525 166L486 171L533 231Z" fill="#e2e4e6" stroke="#e2e4e6"></path><path d="M373 379L434 374L436 364Z" fill="#e2e4e6" stroke="#e2e4e6"></path><path d="M436 364L434 374L450 354Z" fill="#ffffff" stroke="#ffffff"></path><path d="M504 396L479 319L450 354Z" fill="#001122" stroke="#001122"></path><path d="M559 345L551 370L563 344Z" fill="#2f3948" stroke="#2f3948"></path><path d="M563 344L627 357L570 333Z" fill="#91969f" stroke="#91969f"></path><path d="M549 195L525 166L533 231Z" fill="#abafb6" stroke="#abafb6"></path><path d="M449 406L504 396L450 354Z" fill="#c7c9ce" stroke="#c7c9ce"></path><path d="M380 271L366 308L450 354Z" fill="#91969f" stroke="#91969f"></path><path d="M486 171L407 182L476 223Z" fill="#abafb6" stroke="#abafb6"></path><path d="M404 247L360 261L380 271Z" fill="#777d88" stroke="#777d88"></path><path d="M380 271L360 261L366 308Z" fill="#ffffff" stroke="#ffffff"></path><path d="M504 396L541 385L551 370Z" fill="#182535" stroke="#182535"></path><path d="M349 198L360 261L404 247Z" fill="#91969f" stroke="#91969f"></path><path d="M570 333L614 285L573 271Z" fill="#2f3948" stroke="#2f3948"></path><path d="M573 271L591 191L538 242Z" fill="#91969f" stroke="#91969f"></path><path d="M627 357L614 285L570 333Z" fill="#abafb6" stroke="#abafb6"></path><path d="M627 357L563 344L551 370Z" fill="#ffffff" stroke="#ffffff"></path><path d="M379 426L449 406L434 374Z" fill="#91969f" stroke="#91969f"></path><path d="M434 374L449 406L450 354Z" fill="#e2e4e6" stroke="#e2e4e6"></path><path d="M486 171L401 171L407 182Z" fill="#5e6572" stroke="#5e6572"></path><path d="M407 182L349 198L404 247Z" fill="#001122" stroke="#001122"></path><path d="M392 89L401 171L486 171Z" fill="#91969f" stroke="#91969f"></path><path d="M606 195L591 191L573 271Z" fill="#001122" stroke="#001122"></path><path d="M549 195L560 155L525 166Z" fill="#ffffff" stroke="#ffffff"></path><path d="M360 261L346 316L366 308Z" fill="#5e6572" stroke="#5e6572"></path><path d="M366 308L373 379L436 364Z" fill="#abafb6" stroke="#abafb6"></path><path d="M591 191L560 155L549 195Z" fill="#464f5d" stroke="#464f5d"></path><path d="M525 166L537 118L486 171Z" fill="#464f5d" stroke="#464f5d"></path><path d="M614 285L606 195L573 271Z" fill="#182535" stroke="#182535"></path><path d="M591 191L625 144L560 155Z" fill="#abafb6" stroke="#abafb6"></path><path d="M406 443L460 423L449 406Z" fill="#ffffff" stroke="#ffffff"></path><path d="M449 406L460 423L504 396Z" fill="#c7c9ce" stroke="#c7c9ce"></path><path d="M504 396L563 428L541 385Z" fill="#91969f" stroke="#91969f"></path><path d="M348 368L373 379L366 308Z" fill="#464f5d" stroke="#464f5d"></path><path d="M401 171L349 198L407 182Z" fill="#182535" stroke="#182535"></path><path d="M289 320L326 335L346 316Z" fill="#001122" stroke="#001122"></path><path d="M346 316L348 368L366 308Z" fill="#ffffff" stroke="#ffffff"></path><path d="M373 379L379 426L434 374Z" fill="#abafb6" stroke="#abafb6"></path><path d="M563 428L551 370L541 385Z" fill="#001122" stroke="#001122"></path><path d="M634 379L627 357L551 370Z" fill="#91969f" stroke="#91969f"></path><path d="M630 175L621 180L676 187Z" fill="#e2e4e6" stroke="#e2e4e6"></path><path d="M627 357L648 307L614 285Z" fill="#182535" stroke="#182535"></path><path d="M625 144L537 118L560 155Z" fill="#182535" stroke="#182535"></path><path d="M560 155L537 118L525 166Z" fill="#abafb6" stroke="#abafb6"></path><path d="M621 180L606 195L676 187Z" fill="#2f3948" stroke="#2f3948"></path><path d="M606 195L621 180L591 191Z" fill="#2f3948" stroke="#2f3948"></path><path d="M346 316L330 355L348 368Z" fill="#777d88" stroke="#777d88"></path><path d="M310 234L346 316L360 261Z" fill="#e2e4e6" stroke="#e2e4e6"></path><path d="M336 118L335 194L349 198Z" fill="#464f5d" stroke="#464f5d"></path><path d="M349 198L310 234L360 261Z" fill="#182535" stroke="#182535"></path><path d="M336 118L349 198L401 171Z" fill="#001122" stroke="#001122"></path><path d="M460 423L563 428L504 396Z" fill="#c7c9ce" stroke="#c7c9ce"></path><path d="M326 335L330 355L346 316Z" fill="#ffffff" stroke="#ffffff"></path><path d="M670 262L606 195L614 285Z" fill="#5e6572" stroke="#5e6572"></path><path d="M621 180L625 144L591 191Z" fill="#001122" stroke="#001122"></path><path d="M335 194L310 234L349 198Z" fill="#ffffff" stroke="#ffffff"></path><path d="M563 428L634 379L551 370Z" fill="#abafb6" stroke="#abafb6"></path><path d="M627 357L687 334L648 307Z" fill="#abafb6" stroke="#abafb6"></path><path d="M555 540L574 435L563 428Z" fill="#abafb6" stroke="#abafb6"></path><path d="M563 428L574 435L634 379Z" fill="#464f5d" stroke="#464f5d"></path><path d="M347 399L373 379L348 368Z" fill="#c7c9ce" stroke="#c7c9ce"></path><path d="M347 399L379 426L373 379Z" fill="#2f3948" stroke="#2f3948"></path><path d="M460 423L507 542L563 428Z" fill="#2f3948" stroke="#2f3948"></path><path d="M330 355L347 399L348 368Z" fill="#abafb6" stroke="#abafb6"></path><path d="M379 426L406 443L449 406Z" fill="#abafb6" stroke="#abafb6"></path><path d="M687 334L670 262L648 307Z" fill="#2f3948" stroke="#2f3948"></path><path d="M648 307L670 262L614 285Z" fill="#e2e4e6" stroke="#e2e4e6"></path><path d="M676 187L625 144L630 175Z" fill="#abafb6" stroke="#abafb6"></path><path d="M630 175L625 144L621 180Z" fill="#5e6572" stroke="#5e6572"></path><path d="M555 9L496 83L537 118Z" fill="#2f3948" stroke="#2f3948"></path><path d="M537 118L496 83L486 171Z" fill="#777d88" stroke="#777d88"></path><path d="M275 302L289 320L346 316Z" fill="#abafb6" stroke="#abafb6"></path><path d="M326 335L289 320L330 355Z" fill="#777d88" stroke="#777d88"></path><path d="M330 355L323 423L347 399Z" fill="#001122" stroke="#001122"></path><path d="M496 83L392 89L486 171Z" fill="#e2e4e6" stroke="#e2e4e6"></path><path d="M335 194L279 190L310 234Z" fill="#182535" stroke="#182535"></path><path d="M310 234L275 302L346 316Z" fill="#e2e4e6" stroke="#e2e4e6"></path><path d="M269 444L323 423L330 355Z" fill="#182535" stroke="#182535"></path><path d="M706 336L687 334L705 404Z" fill="#e2e4e6" stroke="#e2e4e6"></path><path d="M634 379L687 334L627 357Z" fill="#abafb6" stroke="#abafb6"></path><path d="M732 266L676 187L670 262Z" fill="#2f3948" stroke="#2f3948"></path><path d="M670 262L676 187L606 195Z" fill="#182535" stroke="#182535"></path><path d="M392 89L336 118L401 171Z" fill="#777d88" stroke="#777d88"></path><path d="M310 234L261 287L275 302Z" fill="#5e6572" stroke="#5e6572"></path><path d="M347 399L323 423L379 426Z" fill="#464f5d" stroke="#464f5d"></path><path d="M370 540L419 524L406 443Z" fill="#182535" stroke="#182535"></path><path d="M269 444L330 355L212 399Z" fill="#182535" stroke="#182535"></path><path d="M408 66L377 87L392 89Z" fill="#91969f" stroke="#91969f"></path><path d="M392 89L377 87L336 118Z" fill="#91969f" stroke="#91969f"></path><path d="M285 153L279 190L335 194Z" fill="#abafb6" stroke="#abafb6"></path><path d="M251 273L261 287L310 234Z" fill="#2f3948" stroke="#2f3948"></path><path d="M275 302L237 323L289 320Z" fill="#e2e4e6" stroke="#e2e4e6"></path><path d="M496 83L408 66L392 89Z" fill="#2f3948" stroke="#2f3948"></path><path d="M555 540L627 451L574 435Z" fill="#ffffff" stroke="#ffffff"></path><path d="M574 435L627 451L634 379Z" fill="#91969f" stroke="#91969f"></path><path d="M705 404L687 334L634 379Z" fill="#001122" stroke="#001122"></path><path d="M687 334L732 266L670 262Z" fill="#001122" stroke="#001122"></path><path d="M257 213L251 273L310 234Z" fill="#5e6572" stroke="#5e6572"></path><path d="M261 287L237 323L275 302Z" fill="#e2e4e6" stroke="#e2e4e6"></path><path d="M496 83L452 45L408 66Z" fill="#2f3948" stroke="#2f3948"></path><path d="M485 0L452 45L496 83Z" fill="#abafb6" stroke="#abafb6"></path><path d="M336 118L285 153L335 194Z" fill="#001122" stroke="#001122"></path><path d="M279 190L257 213L310 234Z" fill="#5e6572" stroke="#5e6572"></path><path d="M294 79L285 153L336 118Z" fill="#c7c9ce" stroke="#c7c9ce"></path><path d="M257 203L257 213L279 190Z" fill="#e2e4e6" stroke="#e2e4e6"></path><path d="M226 192L257 203L279 190Z" fill="#e2e4e6" stroke="#e2e4e6"></path><path d="M224 296L261 287L251 273Z" fill="#ffffff" stroke="#ffffff"></path><path d="M408 66L363 63L377 87Z" fill="#182535" stroke="#182535"></path><path d="M377 87L363 63L336 118Z" fill="#001122" stroke="#001122"></path><path d="M384 26L363 63L408 66Z" fill="#5e6572" stroke="#5e6572"></path><path d="M627 451L689 417L634 379Z" fill="#c7c9ce" stroke="#c7c9ce"></path><path d="M742 299L687 334L706 336Z" fill="#182535" stroke="#182535"></path><path d="M742 299L732 266L687 334Z" fill="#182535" stroke="#182535"></path><path d="M224 296L251 273L211 270Z" fill="#abafb6" stroke="#abafb6"></path><path d="M224 296L237 323L261 287Z" fill="#2f3948" stroke="#2f3948"></path><path d="M689 417L705 404L634 379Z" fill="#182535" stroke="#182535"></path><path d="M409 540L419 524L370 540Z" fill="#5e6572" stroke="#5e6572"></path><path d="M406 443L419 524L460 423Z" fill="#5e6572" stroke="#5e6572"></path><path d="M676 187L681 111L625 144Z" fill="#91969f" stroke="#91969f"></path><path d="M625 144L622 55L537 118Z" fill="#182535" stroke="#182535"></path><path d="M747 142L681 111L676 187Z" fill="#464f5d" stroke="#464f5d"></path><path d="M751 319L742 299L706 336Z" fill="#464f5d" stroke="#464f5d"></path><path d="M211 270L251 273L203 234Z" fill="#182535" stroke="#182535"></path><path d="M680 86L622 55L625 144Z" fill="#91969f" stroke="#91969f"></path><path d="M419 524L459 540L460 423Z" fill="#e2e4e6" stroke="#e2e4e6"></path><path d="M459 540L507 542L460 423Z" fill="#182535" stroke="#182535"></path><path d="M751 458L705 404L689 417Z" fill="#c7c9ce" stroke="#c7c9ce"></path><path d="M407 0L408 66L452 45Z" fill="#5e6572" stroke="#5e6572"></path><path d="M407 0L384 26L408 66Z" fill="#c7c9ce" stroke="#c7c9ce"></path><path d="M200 172L226 192L285 153Z" fill="#182535" stroke="#182535"></path><path d="M752 350L751 319L706 336Z" fill="#001122" stroke="#001122"></path><path d="M763 198L752 185L732 266Z" fill="#5e6572" stroke="#5e6572"></path><path d="M728 76L680 86L681 111Z" fill="#2f3948" stroke="#2f3948"></path><path d="M285 153L226 192L279 190Z" fill="#464f5d" stroke="#464f5d"></path><path d="M257 203L226 192L257 213Z" fill="#91969f" stroke="#91969f"></path><path d="M294 79L336 118L363 63Z" fill="#001122" stroke="#001122"></path><path d="M212 399L289 320L237 323Z" fill="#464f5d" stroke="#464f5d"></path><path d="M212 399L330 355L289 320Z" fill="#001122" stroke="#001122"></path><path d="M370 540L406 443L379 426Z" fill="#c7c9ce" stroke="#c7c9ce"></path><path d="M507 542L555 540L563 428Z" fill="#182535" stroke="#182535"></path><path d="M747 409L753 366L705 404Z" fill="#777d88" stroke="#777d88"></path><path d="M203 234L251 273L257 213Z" fill="#91969f" stroke="#91969f"></path><path d="M224 296L200 361L237 323Z" fill="#777d88" stroke="#777d88"></path><path d="M419 524L409 540L459 540Z" fill="#777d88" stroke="#777d88"></path><path d="M459 540L452 586L507 542Z" fill="#ffffff" stroke="#ffffff"></path><path d="M370 540L379 426L297 500Z" fill="#abafb6" stroke="#abafb6"></path><path d="M752 185L676 187L732 266Z" fill="#abafb6" stroke="#abafb6"></path><path d="M681 111L680 86L625 144Z" fill="#182535" stroke="#182535"></path><path d="M317 38L294 79L363 63Z" fill="#c7c9ce" stroke="#c7c9ce"></path><path d="M555 9L485 0L496 83Z" fill="#2f3948" stroke="#2f3948"></path><path d="M587 0L555 9L622 55Z" fill="#2f3948" stroke="#2f3948"></path><path d="M622 55L555 9L537 118Z" fill="#91969f" stroke="#91969f"></path><path d="M485 0L470 0L452 45Z" fill="#abafb6" stroke="#abafb6"></path><path d="M470 0L465 0L452 45Z" fill="#777d88" stroke="#777d88"></path><path d="M270 494L273 458L216 453Z" fill="#2f3948" stroke="#2f3948"></path><path d="M269 444L273 458L323 423Z" fill="#001122" stroke="#001122"></path><path d="M753 366L752 350L706 336Z" fill="#c7c9ce" stroke="#c7c9ce"></path><path d="M705 404L753 366L706 336Z" fill="#ffffff" stroke="#ffffff"></path><path d="M776 326L742 299L751 319Z" fill="#777d88" stroke="#777d88"></path><path d="M759 373L753 366L747 409Z" fill="#c7c9ce" stroke="#c7c9ce"></path><path d="M732 266L742 299L806 300Z" fill="#91969f" stroke="#91969f"></path><path d="M763 198L732 266L812 247Z" fill="#001122" stroke="#001122"></path><path d="M226 192L203 234L257 213Z" fill="#abafb6" stroke="#abafb6"></path><path d="M297 500L379 426L323 423Z" fill="#777d88" stroke="#777d88"></path><path d="M409 540L431 575L459 540Z" fill="#777d88" stroke="#777d88"></path><path d="M465 0L407 0L452 45Z" fill="#e2e4e6" stroke="#e2e4e6"></path><path d="M384 26L317 38L363 63Z" fill="#91969f" stroke="#91969f"></path><path d="M776 326L751 319L752 350Z" fill="#ffffff" stroke="#ffffff"></path><path d="M752 185L747 142L676 187Z" fill="#001122" stroke="#001122"></path><path d="M273 458L297 500L323 423Z" fill="#e2e4e6" stroke="#e2e4e6"></path><path d="M763 198L757 176L752 185Z" fill="#464f5d" stroke="#464f5d"></path><path d="M747 409L705 404L751 458Z" fill="#c7c9ce" stroke="#c7c9ce"></path><path d="M753 366L759 373L752 350Z" fill="#e2e4e6" stroke="#e2e4e6"></path><path d="M317 0L317 38L384 26Z" fill="#c7c9ce" stroke="#c7c9ce"></path><path d="M200 172L196 217L226 192Z" fill="#91969f" stroke="#91969f"></path><path d="M226 192L196 217L203 234Z" fill="#2f3948" stroke="#2f3948"></path><path d="M203 234L175 239L211 270Z" fill="#2f3948" stroke="#2f3948"></path><path d="M200 172L285 153L185 105Z" fill="#e2e4e6" stroke="#e2e4e6"></path><path d="M728 482L689 417L627 451Z" fill="#5e6572" stroke="#5e6572"></path><path d="M636 0L587 0L622 55Z" fill="#777d88" stroke="#777d88"></path><path d="M555 9L541 -31L485 0Z" fill="#abafb6" stroke="#abafb6"></path><path d="M757 176L747 142L752 185Z" fill="#182535" stroke="#182535"></path><path d="M683 13L636 0L622 55Z" fill="#182535" stroke="#182535"></path><path d="M140 337L224 296L211 270Z" fill="#91969f" stroke="#91969f"></path><path d="M140 337L200 361L224 296Z" fill="#2f3948" stroke="#2f3948"></path><path d="M273 458L270 494L297 500Z" fill="#2f3948" stroke="#2f3948"></path><path d="M806 300L855 353L854 314Z" fill="#182535" stroke="#182535"></path><path d="M759 373L776 326L752 350Z" fill="#001122" stroke="#001122"></path><path d="M200 361L212 399L237 323Z" fill="#2f3948" stroke="#2f3948"></path><path d="M173 168L200 172L185 105Z" fill="#182535" stroke="#182535"></path><path d="M326 559L431 575L370 540Z" fill="#777d88" stroke="#777d88"></path><path d="M370 540L431 575L409 540Z" fill="#2f3948" stroke="#2f3948"></path><path d="M507 542L452 586L555 540Z" fill="#abafb6" stroke="#abafb6"></path><path d="M297 500L331 540L370 540Z" fill="#2f3948" stroke="#2f3948"></path><path d="M216 453L273 458L269 444Z" fill="#5e6572" stroke="#5e6572"></path><path d="M297 500L321 540L331 540Z" fill="#182535" stroke="#182535"></path><path d="M293 540L321 540L297 500Z" fill="#e2e4e6" stroke="#e2e4e6"></path><path d="M331 540L326 559L370 540Z" fill="#464f5d" stroke="#464f5d"></path><path d="M638 593L649 540L555 540Z" fill="#5e6572" stroke="#5e6572"></path><path d="M555 540L649 540L627 451Z" fill="#001122" stroke="#001122"></path><path d="M326 559L452 586L431 575Z" fill="#ffffff" stroke="#ffffff"></path><path d="M431 575L452 586L459 540Z" fill="#182535" stroke="#182535"></path><path d="M157 228L175 239L196 217Z" fill="#2f3948" stroke="#2f3948"></path><path d="M196 217L175 239L203 234Z" fill="#001122" stroke="#001122"></path><path d="M749 114L747 142L800 116Z" fill="#464f5d" stroke="#464f5d"></path><path d="M769 99L749 114L800 116Z" fill="#c7c9ce" stroke="#c7c9ce"></path><path d="M747 142L749 114L681 111Z" fill="#2f3948" stroke="#2f3948"></path><path d="M465 0L399 -23L407 0Z" fill="#2f3948" stroke="#2f3948"></path><path d="M407 0L399 -23L384 26Z" fill="#ffffff" stroke="#ffffff"></path><path d="M485 -46L399 -23L465 0Z" fill="#91969f" stroke="#91969f"></path><path d="M485 -46L465 0L470 0Z" fill="#464f5d" stroke="#464f5d"></path><path d="M485 -46L470 0L485 0Z" fill="#5e6572" stroke="#5e6572"></path><path d="M587 0L541 -31L555 9Z" fill="#464f5d" stroke="#464f5d"></path><path d="M683 13L622 55L680 86Z" fill="#e2e4e6" stroke="#e2e4e6"></path><path d="M587 0L665 -47L541 -31Z" fill="#abafb6" stroke="#abafb6"></path><path d="M749 114L728 76L681 111Z" fill="#464f5d" stroke="#464f5d"></path><path d="M638 593L662 540L649 540Z" fill="#777d88" stroke="#777d88"></path><path d="M649 540L683 531L627 451Z" fill="#ffffff" stroke="#ffffff"></path><path d="M683 531L728 482L627 451Z" fill="#5e6572" stroke="#5e6572"></path><path d="M747 409L786 401L759 373Z" fill="#182535" stroke="#182535"></path><path d="M164 414L216 453L212 399Z" fill="#464f5d" stroke="#464f5d"></path><path d="M212 399L216 453L269 444Z" fill="#ffffff" stroke="#ffffff"></path><path d="M293 540L326 559L321 540Z" fill="#5e6572" stroke="#5e6572"></path><path d="M164 414L212 399L200 361Z" fill="#abafb6" stroke="#abafb6"></path><path d="M728 482L751 458L689 417Z" fill="#e2e4e6" stroke="#e2e4e6"></path><path d="M662 540L683 531L649 540Z" fill="#5e6572" stroke="#5e6572"></path><path d="M728 482L750 535L751 458Z" fill="#e2e4e6" stroke="#e2e4e6"></path><path d="M792 400L776 326L759 373Z" fill="#2f3948" stroke="#2f3948"></path><path d="M776 326L806 300L742 299Z" fill="#2f3948" stroke="#2f3948"></path><path d="M763 198L810 189L757 176Z" fill="#c7c9ce" stroke="#c7c9ce"></path><path d="M541 -31L485 -46L485 0Z" fill="#5e6572" stroke="#5e6572"></path><path d="M293 540L297 500L270 494Z" fill="#464f5d" stroke="#464f5d"></path><path d="M321 540L326 559L331 540Z" fill="#91969f" stroke="#91969f"></path><path d="M399 -23L317 0L384 26Z" fill="#001122" stroke="#001122"></path><path d="M317 38L281 0L294 79Z" fill="#abafb6" stroke="#abafb6"></path><path d="M199 540L293 540L270 494Z" fill="#001122" stroke="#001122"></path><path d="M683 531L705 540L728 482Z" fill="#464f5d" stroke="#464f5d"></path><path d="M662 540L676 540L683 531Z" fill="#e2e4e6" stroke="#e2e4e6"></path><path d="M638 593L676 540L662 540Z" fill="#abafb6" stroke="#abafb6"></path><path d="M751 458L786 401L747 409Z" fill="#c7c9ce" stroke="#c7c9ce"></path><path d="M185 105L285 153L294 79Z" fill="#5e6572" stroke="#5e6572"></path><path d="M200 172L173 168L196 217Z" fill="#91969f" stroke="#91969f"></path><path d="M854 314L813 291L806 300Z" fill="#ffffff" stroke="#ffffff"></path><path d="M806 300L812 247L732 266Z" fill="#2f3948" stroke="#2f3948"></path><path d="M813 291L812 247L806 300Z" fill="#5e6572" stroke="#5e6572"></path><path d="M173 168L157 228L196 217Z" fill="#464f5d" stroke="#464f5d"></path><path d="M121 265L140 337L211 270Z" fill="#777d88" stroke="#777d88"></path><path d="M728 76L683 13L680 86Z" fill="#c7c9ce" stroke="#c7c9ce"></path><path d="M636 0L665 -47L587 0Z" fill="#91969f" stroke="#91969f"></path><path d="M751 458L792 400L786 401Z" fill="#5e6572" stroke="#5e6572"></path><path d="M786 401L792 400L759 373Z" fill="#c7c9ce" stroke="#c7c9ce"></path><path d="M812 247L808 203L763 198Z" fill="#182535" stroke="#182535"></path><path d="M749 114L769 99L728 76Z" fill="#91969f" stroke="#91969f"></path><path d="M800 116L747 142L757 176Z" fill="#2f3948" stroke="#2f3948"></path><path d="M727 7L686 0L683 13Z" fill="#5e6572" stroke="#5e6572"></path><path d="M912 233L810 189L808 203Z" fill="#777d88" stroke="#777d88"></path><path d="M808 203L810 189L763 198Z" fill="#2f3948" stroke="#2f3948"></path><path d="M727 7L683 13L728 76Z" fill="#c7c9ce" stroke="#c7c9ce"></path><path d="M683 13L686 0L636 0Z" fill="#e2e4e6" stroke="#e2e4e6"></path><path d="M541 -31L665 -47L485 -46Z" fill="#2f3948" stroke="#2f3948"></path><path d="M399 -23L281 0L317 0Z" fill="#ffffff" stroke="#ffffff"></path><path d="M317 0L281 0L317 38Z" fill="#91969f" stroke="#91969f"></path><path d="M224 0L215 -13L212 -6Z" fill="#464f5d" stroke="#464f5d"></path><path d="M676 540L705 540L683 531Z" fill="#c7c9ce" stroke="#c7c9ce"></path><path d="M751 458L844 430L792 400Z" fill="#182535" stroke="#182535"></path><path d="M705 564L705 540L676 540Z" fill="#464f5d" stroke="#464f5d"></path><path d="M178 77L185 105L294 79Z" fill="#777d88" stroke="#777d88"></path><path d="M173 168L129 209L157 228Z" fill="#777d88" stroke="#777d88"></path><path d="M140 337L164 414L200 361Z" fill="#91969f" stroke="#91969f"></path><path d="M216 453L210 495L270 494Z" fill="#5e6572" stroke="#5e6572"></path><path d="M121 265L211 270L175 239Z" fill="#ffffff" stroke="#ffffff"></path><path d="M118 447L210 495L216 453Z" fill="#001122" stroke="#001122"></path><path d="M293 540L183 582L326 559Z" fill="#91969f" stroke="#91969f"></path><path d="M452 586L638 593L555 540Z" fill="#e2e4e6" stroke="#e2e4e6"></path><path d="M810 189L800 116L757 176Z" fill="#464f5d" stroke="#464f5d"></path><path d="M809 25L727 7L728 76Z" fill="#2f3948" stroke="#2f3948"></path><path d="M147 131L144 159L173 168Z" fill="#5e6572" stroke="#5e6572"></path><path d="M157 228L121 265L175 239Z" fill="#abafb6" stroke="#abafb6"></path><path d="M144 159L129 209L173 168Z" fill="#abafb6" stroke="#abafb6"></path><path d="M638 593L705 564L676 540Z" fill="#abafb6" stroke="#abafb6"></path><path d="M705 540L750 535L728 482Z" fill="#001122" stroke="#001122"></path><path d="M129 209L121 265L157 228Z" fill="#abafb6" stroke="#abafb6"></path><path d="M732 -11L727 7L793 0Z" fill="#464f5d" stroke="#464f5d"></path><path d="M686 0L665 -47L636 0Z" fill="#ffffff" stroke="#ffffff"></path><path d="M185 105L147 131L173 168Z" fill="#777d88" stroke="#777d88"></path><path d="M192 20L178 77L294 79Z" fill="#e2e4e6" stroke="#e2e4e6"></path><path d="M137 109L147 131L185 105Z" fill="#ffffff" stroke="#ffffff"></path><path d="M144 159L127 155L129 209Z" fill="#ffffff" stroke="#ffffff"></path><path d="M705 564L750 535L705 540Z" fill="#e2e4e6" stroke="#e2e4e6"></path><path d="M732 -11L665 -47L686 0Z" fill="#e2e4e6" stroke="#e2e4e6"></path><path d="M813 291L882 262L812 247Z" fill="#464f5d" stroke="#464f5d"></path><path d="M812 247L882 262L808 203Z" fill="#464f5d" stroke="#464f5d"></path><path d="M876 117L824 93L800 116Z" fill="#abafb6" stroke="#abafb6"></path><path d="M855 353L806 300L776 326Z" fill="#777d88" stroke="#777d88"></path><path d="M855 353L776 326L792 400Z" fill="#abafb6" stroke="#abafb6"></path><path d="M137 109L127 155L147 131Z" fill="#ffffff" stroke="#ffffff"></path><path d="M147 131L127 155L144 159Z" fill="#91969f" stroke="#91969f"></path><path d="M129 209L107 212L121 265Z" fill="#777d88" stroke="#777d88"></path><path d="M844 430L855 353L792 400Z" fill="#e2e4e6" stroke="#e2e4e6"></path><path d="M209 0L224 0L212 -6Z" fill="#e2e4e6" stroke="#e2e4e6"></path><path d="M281 0L224 0L294 79Z" fill="#182535" stroke="#182535"></path><path d="M178 77L137 109L185 105Z" fill="#777d88" stroke="#777d88"></path><path d="M809 25L728 76L769 99Z" fill="#001122" stroke="#001122"></path><path d="M727 7L732 -11L686 0Z" fill="#2f3948" stroke="#2f3948"></path><path d="M86 176L107 212L129 209Z" fill="#777d88" stroke="#777d88"></path><path d="M80 312L109 367L140 337Z" fill="#91969f" stroke="#91969f"></path><path d="M92 73L137 109L178 77Z" fill="#777d88" stroke="#777d88"></path><path d="M127 155L86 176L129 209Z" fill="#182535" stroke="#182535"></path><path d="M80 312L140 337L121 265Z" fill="#c7c9ce" stroke="#c7c9ce"></path><path d="M140 337L109 367L164 414Z" fill="#001122" stroke="#001122"></path><path d="M168 540L199 540L210 495Z" fill="#182535" stroke="#182535"></path><path d="M876 117L800 116L810 189Z" fill="#e2e4e6" stroke="#e2e4e6"></path><path d="M800 116L824 93L769 99Z" fill="#91969f" stroke="#91969f"></path><path d="M118 447L216 453L164 414Z" fill="#777d88" stroke="#777d88"></path><path d="M210 495L199 540L270 494Z" fill="#182535" stroke="#182535"></path><path d="M326 559L183 582L452 586Z" fill="#ffffff" stroke="#ffffff"></path><path d="M224 0L192 20L294 79Z" fill="#abafb6" stroke="#abafb6"></path><path d="M224 0L281 0L215 -13Z" fill="#2f3948" stroke="#2f3948"></path><path d="M224 0L209 0L192 20Z" fill="#c7c9ce" stroke="#c7c9ce"></path><path d="M864 469L844 430L751 458Z" fill="#182535" stroke="#182535"></path><path d="M705 564L775 540L750 535Z" fill="#c7c9ce" stroke="#c7c9ce"></path><path d="M750 535L775 540L751 458Z" fill="#5e6572" stroke="#5e6572"></path><path d="M820 558L775 540L705 564Z" fill="#c7c9ce" stroke="#c7c9ce"></path><path d="M215 -13L281 0L399 -23Z" fill="#182535" stroke="#182535"></path><path d="M209 0L155 0L192 20Z" fill="#ffffff" stroke="#ffffff"></path><path d="M485 -46L215 -13L399 -23Z" fill="#91969f" stroke="#91969f"></path><path d="M212 -6L155 0L209 0Z" fill="#e2e4e6" stroke="#e2e4e6"></path><path d="M883 285L813 291L854 314Z" fill="#001122" stroke="#001122"></path><path d="M883 285L882 262L813 291Z" fill="#464f5d" stroke="#464f5d"></path><path d="M883 285L854 314L945 319Z" fill="#182535" stroke="#182535"></path><path d="M923 266L883 285L925 272Z" fill="#c7c9ce" stroke="#c7c9ce"></path><path d="M109 367L118 447L164 414Z" fill="#5e6572" stroke="#5e6572"></path><path d="M69 261L80 312L121 265Z" fill="#5e6572" stroke="#5e6572"></path><path d="M80 419L114 451L118 447Z" fill="#777d88" stroke="#777d88"></path><path d="M80 419L118 447L109 367Z" fill="#777d88" stroke="#777d88"></path><path d="M167 540L168 540L210 495Z" fill="#464f5d" stroke="#464f5d"></path><path d="M92 73L86 176L127 155Z" fill="#c7c9ce" stroke="#c7c9ce"></path><path d="M107 212L69 261L121 265Z" fill="#182535" stroke="#182535"></path><path d="M68 179L86 176L92 73Z" fill="#464f5d" stroke="#464f5d"></path><path d="M167 540L210 495L125 500Z" fill="#91969f" stroke="#91969f"></path><path d="M199 540L183 582L293 540Z" fill="#2f3948" stroke="#2f3948"></path><path d="M824 93L809 25L769 99Z" fill="#182535" stroke="#182535"></path><path d="M732 -11L756 -33L665 -47Z" fill="#91969f" stroke="#91969f"></path><path d="M900 72L809 25L824 93Z" fill="#c7c9ce" stroke="#c7c9ce"></path><path d="M125 500L210 495L118 447Z" fill="#e2e4e6" stroke="#e2e4e6"></path><path d="M168 540L183 582L199 540Z" fill="#e2e4e6" stroke="#e2e4e6"></path><path d="M793 0L756 -33L732 -11Z" fill="#91969f" stroke="#91969f"></path><path d="M44 234L69 261L107 212Z" fill="#ffffff" stroke="#ffffff"></path><path d="M809 25L793 0L727 7Z" fill="#2f3948" stroke="#2f3948"></path><path d="M39 460L125 500L114 451Z" fill="#e2e4e6" stroke="#e2e4e6"></path><path d="M114 451L125 500L118 447Z" fill="#abafb6" stroke="#abafb6"></path><path d="M912 233L808 203L882 262Z" fill="#182535" stroke="#182535"></path><path d="M911 140L876 117L810 189Z" fill="#ffffff" stroke="#ffffff"></path><path d="M809 25L863 0L793 0Z" fill="#5e6572" stroke="#5e6572"></path><path d="M835 540L864 469L751 458Z" fill="#5e6572" stroke="#5e6572"></path><path d="M944 387L945 319L855 353Z" fill="#2f3948" stroke="#2f3948"></path><path d="M92 73L127 155L137 109Z" fill="#ffffff" stroke="#ffffff"></path><path d="M86 176L55 202L107 212Z" fill="#e2e4e6" stroke="#e2e4e6"></path><path d="M155 0L178 77L192 20Z" fill="#abafb6" stroke="#abafb6"></path><path d="M14 346L80 419L109 367Z" fill="#464f5d" stroke="#464f5d"></path><path d="M14 346L109 367L80 312Z" fill="#c7c9ce" stroke="#c7c9ce"></path><path d="M123 540L183 582L167 540Z" fill="#91969f" stroke="#91969f"></path><path d="M167 540L183 582L168 540Z" fill="#182535" stroke="#182535"></path><path d="M452 586L183 582L638 593Z" fill="#91969f" stroke="#91969f"></path><path d="M215 -13L155 0L212 -6Z" fill="#001122" stroke="#001122"></path><path d="M923 266L882 262L883 285Z" fill="#001122" stroke="#001122"></path><path d="M923 266L912 233L882 262Z" fill="#abafb6" stroke="#abafb6"></path><path d="M68 179L55 202L86 176Z" fill="#ffffff" stroke="#ffffff"></path><path d="M69 261L28 284L80 312Z" fill="#c7c9ce" stroke="#c7c9ce"></path><path d="M0 170L55 202L68 179Z" fill="#2f3948" stroke="#2f3948"></path><path d="M638 593L820 558L705 564Z" fill="#001122" stroke="#001122"></path><path d="M775 540L835 540L751 458Z" fill="#e2e4e6" stroke="#e2e4e6"></path><path d="M820 558L835 540L775 540Z" fill="#464f5d" stroke="#464f5d"></path><path d="M925 272L883 285L945 319Z" fill="#001122" stroke="#001122"></path><path d="M912 233L911 140L810 189Z" fill="#c7c9ce" stroke="#c7c9ce"></path><path d="M945 319L854 314L855 353Z" fill="#2f3948" stroke="#2f3948"></path><path d="M924 129L911 140L960 198Z" fill="#001122" stroke="#001122"></path><path d="M121 1L92 73L178 77Z" fill="#777d88" stroke="#777d88"></path><path d="M3 269L44 234L0 170Z" fill="#464f5d" stroke="#464f5d"></path><path d="M55 202L44 234L107 212Z" fill="#182535" stroke="#182535"></path><path d="M115 535L123 540L125 500Z" fill="#ffffff" stroke="#ffffff"></path><path d="M125 500L123 540L167 540Z" fill="#777d88" stroke="#777d88"></path><path d="M911 140L912 233L960 198Z" fill="#001122" stroke="#001122"></path><path d="M876 117L900 72L824 93Z" fill="#ffffff" stroke="#ffffff"></path><path d="M39 460L115 535L125 500Z" fill="#182535" stroke="#182535"></path><path d="M123 540L0 545L183 582Z" fill="#c7c9ce" stroke="#c7c9ce"></path><path d="M877 539L878 496L835 540Z" fill="#464f5d" stroke="#464f5d"></path><path d="M835 540L878 496L864 469Z" fill="#2f3948" stroke="#2f3948"></path><path d="M928 418L855 353L844 430Z" fill="#c7c9ce" stroke="#c7c9ce"></path><path d="M3 269L28 284L44 234Z" fill="#001122" stroke="#001122"></path><path d="M44 234L28 284L69 261Z" fill="#464f5d" stroke="#464f5d"></path><path d="M80 419L39 460L114 451Z" fill="#e2e4e6" stroke="#e2e4e6"></path><path d="M155 0L121 1L178 77Z" fill="#c7c9ce" stroke="#c7c9ce"></path><path d="M215 -13L121 1L155 0Z" fill="#5e6572" stroke="#5e6572"></path><path d="M928 418L844 430L864 469Z" fill="#e2e4e6" stroke="#e2e4e6"></path><path d="M960 253L912 233L923 266Z" fill="#91969f" stroke="#91969f"></path><path d="M924 129L876 117L911 140Z" fill="#c7c9ce" stroke="#c7c9ce"></path><path d="M924 129L900 72L876 117Z" fill="#5e6572" stroke="#5e6572"></path><path d="M793 0L904 -49L756 -33Z" fill="#001122" stroke="#001122"></path><path d="M960 253L923 266L925 272Z" fill="#e2e4e6" stroke="#e2e4e6"></path><path d="M954 450L928 418L864 469Z" fill="#2f3948" stroke="#2f3948"></path><path d="M900 72L863 0L809 25Z" fill="#182535" stroke="#182535"></path><path d="M820 558L877 539L835 540Z" fill="#ffffff" stroke="#ffffff"></path><path d="M878 496L954 450L864 469Z" fill="#777d88" stroke="#777d88"></path><path d="M960 360L944 387L960 390Z" fill="#ffffff" stroke="#ffffff"></path><path d="M928 418L944 387L855 353Z" fill="#5e6572" stroke="#5e6572"></path><path d="M28 284L14 346L80 312Z" fill="#abafb6" stroke="#abafb6"></path><path d="M960 356L960 253L945 319Z" fill="#c7c9ce" stroke="#c7c9ce"></path><path d="M945 319L960 253L925 272Z" fill="#464f5d" stroke="#464f5d"></path><path d="M0 274L3 269L-49 146Z" fill="#c7c9ce" stroke="#c7c9ce"></path><path d="M0 170L44 234L55 202Z" fill="#5e6572" stroke="#5e6572"></path><path d="M28 284L0 313L14 346Z" fill="#182535" stroke="#182535"></path><path d="M8 442L39 460L80 419Z" fill="#abafb6" stroke="#abafb6"></path><path d="M960 360L960 356L944 387Z" fill="#464f5d" stroke="#464f5d"></path><path d="M944 387L960 356L945 319Z" fill="#182535" stroke="#182535"></path><path d="M930 0L894 0L900 72Z" fill="#ffffff" stroke="#ffffff"></path><path d="M960 253L960 198L912 233Z" fill="#abafb6" stroke="#abafb6"></path><path d="M960 390L944 387L960 393Z" fill="#abafb6" stroke="#abafb6"></path><path d="M0 133L68 179L0 123Z" fill="#777d88" stroke="#777d88"></path><path d="M3 269L0 274L28 284Z" fill="#e2e4e6" stroke="#e2e4e6"></path><path d="M0 274L0 285L28 284Z" fill="#e2e4e6" stroke="#e2e4e6"></path><path d="M14 346L0 393L80 419Z" fill="#e2e4e6" stroke="#e2e4e6"></path><path d="M0 285L0 313L28 284Z" fill="#e2e4e6" stroke="#e2e4e6"></path><path d="M82 0L48 58L92 73Z" fill="#ffffff" stroke="#ffffff"></path><path d="M42 -10L82 0L121 1Z" fill="#2f3948" stroke="#2f3948"></path><path d="M121 1L82 0L92 73Z" fill="#2f3948" stroke="#2f3948"></path><path d="M48 0L82 0L42 -10Z" fill="#777d88" stroke="#777d88"></path><path d="M960 393L944 387L960 415Z" fill="#abafb6" stroke="#abafb6"></path><path d="M960 415L944 387L928 418Z" fill="#464f5d" stroke="#464f5d"></path><path d="M0 313L0 357L14 346Z" fill="#ffffff" stroke="#ffffff"></path><path d="M0 357L0 361L14 346Z" fill="#c7c9ce" stroke="#c7c9ce"></path><path d="M900 72L894 0L863 0Z" fill="#c7c9ce" stroke="#c7c9ce"></path><path d="M863 0L904 -49L793 0Z" fill="#464f5d" stroke="#464f5d"></path><path d="M960 101L900 72L924 129Z" fill="#182535" stroke="#182535"></path><path d="M0 133L0 170L68 179Z" fill="#c7c9ce" stroke="#c7c9ce"></path><path d="M820 558L904 540L877 539Z" fill="#abafb6" stroke="#abafb6"></path><path d="M877 539L904 540L878 496Z" fill="#464f5d" stroke="#464f5d"></path><path d="M954 450L960 415L928 418Z" fill="#001122" stroke="#001122"></path><path d="M0 361L0 393L14 346Z" fill="#e2e4e6" stroke="#e2e4e6"></path><path d="M929 540L954 450L878 496Z" fill="#c7c9ce" stroke="#c7c9ce"></path><path d="M0 393L8 442L80 419Z" fill="#ffffff" stroke="#ffffff"></path><path d="M39 460L0 540L115 535Z" fill="#182535" stroke="#182535"></path><path d="M0 123L68 179L92 73Z" fill="#182535" stroke="#182535"></path><path d="M0 123L92 73L48 58Z" fill="#e2e4e6" stroke="#e2e4e6"></path><path d="M929 540L960 453L954 450Z" fill="#ffffff" stroke="#ffffff"></path><path d="M954 450L960 453L960 415Z" fill="#91969f" stroke="#91969f"></path><path d="M990 174L960 101L924 129Z" fill="#ffffff" stroke="#ffffff"></path><path d="M0 98L0 123L48 58Z" fill="#464f5d" stroke="#464f5d"></path><path d="M0 0L0 98L48 58Z" fill="#91969f" stroke="#91969f"></path><path d="M42 -10L121 1L215 -13Z" fill="#001122" stroke="#001122"></path><path d="M82 0L48 0L48 58Z" fill="#5e6572" stroke="#5e6572"></path><path d="M1001 182L990 174L960 198Z" fill="#c7c9ce" stroke="#c7c9ce"></path><path d="M960 198L990 174L924 129Z" fill="#5e6572" stroke="#5e6572"></path><path d="M1001 182L960 198L960 253Z" fill="#001122" stroke="#001122"></path><path d="M1001 182L960 253L960 356Z" fill="#abafb6" stroke="#abafb6"></path><path d="M1001 182L960 356L960 360Z" fill="#e2e4e6" stroke="#e2e4e6"></path><path d="M1001 182L960 360L960 390Z" fill="#2f3948" stroke="#2f3948"></path><path d="M1001 182L960 390L960 393Z" fill="#e2e4e6" stroke="#e2e4e6"></path><path d="M1001 182L960 393L960 415Z" fill="#91969f" stroke="#91969f"></path><path d="M820 558L929 540L904 540Z" fill="#ffffff" stroke="#ffffff"></path><path d="M904 540L929 540L878 496Z" fill="#777d88" stroke="#777d88"></path><path d="M960 540L929 540L820 558Z" fill="#001122" stroke="#001122"></path><path d="M960 45L930 0L900 72Z" fill="#2f3948" stroke="#2f3948"></path><path d="M894 0L904 -49L863 0Z" fill="#2f3948" stroke="#2f3948"></path><path d="M960 45L900 72L960 101Z" fill="#91969f" stroke="#91969f"></path><path d="M960 453L1001 182L960 415Z" fill="#777d88" stroke="#777d88"></path><path d="M990 174L1001 182L960 101Z" fill="#91969f" stroke="#91969f"></path><path d="M485 -46L42 -10L215 -13Z" fill="#abafb6" stroke="#abafb6"></path><path d="M48 0L0 0L48 58Z" fill="#464f5d" stroke="#464f5d"></path><path d="M1001 182L960 45L960 101Z" fill="#ffffff" stroke="#ffffff"></path><path d="M960 -8L904 -49L930 0Z" fill="#c7c9ce" stroke="#c7c9ce"></path><path d="M930 0L904 -49L894 0Z" fill="#c7c9ce" stroke="#c7c9ce"></path><path d="M756 -33L904 -49L665 -47Z" fill="#001122" stroke="#001122"></path><path d="M665 -47L904 -49L485 -46Z" fill="#001122" stroke="#001122"></path><path d="M638 593L960 540L820 558Z" fill="#91969f" stroke="#91969f"></path><path d="M929 540L960 540L960 453Z" fill="#ffffff" stroke="#ffffff"></path><path d="M960 453L960 540L1001 182Z" fill="#777d88" stroke="#777d88"></path><path d="M0 123L-49 146L0 133Z" fill="#abafb6" stroke="#abafb6"></path><path d="M0 133L-49 146L0 170Z" fill="#ffffff" stroke="#ffffff"></path><path d="M0 170L-49 146L3 269Z" fill="#abafb6" stroke="#abafb6"></path><path d="M0 274L-49 146L0 285Z" fill="#ffffff" stroke="#ffffff"></path><path d="M0 285L-49 146L0 313Z" fill="#2f3948" stroke="#2f3948"></path><path d="M0 313L-49 146L0 357Z" fill="#5e6572" stroke="#5e6572"></path><path d="M0 357L-49 146L0 361Z" fill="#5e6572" stroke="#5e6572"></path><path d="M0 361L-49 146L0 393Z" fill="#ffffff" stroke="#ffffff"></path><path d="M-19 539L0 540L8 442Z" fill="#2f3948" stroke="#2f3948"></path><path d="M0 98L-49 146L0 123Z" fill="#c7c9ce" stroke="#c7c9ce"></path><path d="M0 0L-49 146L0 98Z" fill="#ffffff" stroke="#ffffff"></path><path d="M-19 539L8 442L0 393Z" fill="#182535" stroke="#182535"></path><path d="M8 442L0 540L39 460Z" fill="#c7c9ce" stroke="#c7c9ce"></path><path d="M115 535L0 545L123 540Z" fill="#c7c9ce" stroke="#c7c9ce"></path><path d="M960 45L960 0L930 0Z" fill="#5e6572" stroke="#5e6572"></path><path d="M1001 182L960 0L960 45Z" fill="#e2e4e6" stroke="#e2e4e6"></path><path d="M-19 539L0 545L0 540Z" fill="#abafb6" stroke="#abafb6"></path><path d="M0 540L0 545L115 535Z" fill="#777d88" stroke="#777d88"></path><path d="M1001 182L960 -8L960 0Z" fill="#777d88" stroke="#777d88"></path><path d="M960 0L960 -8L930 0Z" fill="#c7c9ce" stroke="#c7c9ce"></path><path d="M42 -10L0 0L48 0Z" fill="#182535" stroke="#182535"></path><path d="M-49 146L-19 539L0 393Z" fill="#91969f" stroke="#91969f"></path></g></svg>